#!OML:ASF F:\VICON\USERDATA\INSTALL\rory3\rory3.ASF
:FULLY-SPECIFIED
:DEGREES
2062
root 0.174633 18.5622 3.0818 -9.40587 -70.5153 9.76898
lowerback 3.99743 2.75607 2.2524
upperback 1.82234 3.73388 0.254809
thorax -0.238953 1.86972 -1.14757
lowerneck -4.72552 -0.290705 -4.15617
upperneck 12.7684 -0.990587 6.94351
head 4.6393 -0.326464 2.77519
rclavicle -6.54002e-014 0
rhumerus -16.8867 -6.82889 -61.414
rradius 22.9964
rwrist 10.6302
rhand -29.562 -0.709209
rfingers 7.12502
rthumb -2.89451 -30.6693
lclavicle -6.54002e-014 0
lhumerus -33.7445 22.2348 49.536
lradius 35.0896
lwrist 15.4938
lhand -24.4226 29.8871
lfingers 7.12502
lthumb 2.06918 59.8568
rfemur -7.8461 13.8133 22.5591
rtibia 31.7569
rfoot -29.8649 -25.3906
rtoes 16.139
lfemur -21.6434 6.47963 -16.1435
ltibia 36.5918
lfoot -14.8561 16.4173
ltoes -7.49486
2063
root 0.222807 18.5556 3.07077 -8.56918 -69.6404 8.74476
lowerback 3.79222 2.71199 2.35972
upperback 1.72079 3.67714 0.248381
thorax -0.223561 1.84225 -1.20395
lowerneck -4.61981 -0.370049 -4.28352
upperneck 12.6938 -1.09363 7.01921
head 4.60523 -0.380705 2.81376
rclavicle -4.17448e-014 -5.56597e-015
rhumerus -16.0648 -7.06419 -60.8334
rradius 23.7266
rwrist 10.2136
rhand -29.5343 -0.238846
rfingers 7.12502
rthumb -2.86771 -30.1993
lclavicle -4.17448e-014 -5.56597e-015
lhumerus -33.3056 21.6559 50.5446
lradius 35.1422
lwrist 14.6246
lhand -22.7347 30.2276
lfingers 7.12502
lthumb 3.69933 60.1752
rfemur -7.82328 13.4883 22.8447
rtibia 31.8201
rfoot -30.2452 -25.8211
rtoes 16.2015
lfemur -21.0895 6.5996 -15.7448
ltibia 37.4497
lfoot -15.3108 16.2716
ltoes -6.53381
2064
root 0.268456 18.5539 3.0599 -8.28904 -68.8518 8.26015
lowerback 3.64271 2.67599 2.25726
upperback 1.62142 3.62522 0.204735
thorax -0.247789 1.8158 -1.18518
lowerneck -4.55946 -0.440546 -4.30788
upperneck 12.6919 -1.18554 6.99959
head 4.59994 -0.428928 2.80678
rclavicle -1.29707e-014 8.74653e-015
rhumerus -15.3853 -6.75218 -60.3383
rradius 24.6836
rwrist 8.98113
rhand -29.7047 -1.27981
rfingers 7.12502
rthumb -3.03232 -31.238
lclavicle -1.29707e-014 8.74653e-015
lhumerus -32.957 20.9394 51.5292
lradius 35.3028
lwrist 13.6173
lhand -21.7426 30.6819
lfingers 7.12502
lthumb 4.65732 60.6107
rfemur -7.69434 13.3171 22.9362
rtibia 31.8769
rfoot -30.8869 -25.9134
rtoes 16.8812
lfemur -20.4029 6.71113 -15.5116
ltibia 38.26
lfoot -15.8111 16.4115
ltoes -5.65167
2065
root 0.312226 18.5511 3.05079 -8.25836 -68.1087 8.01554
lowerback 3.50515 2.65323 2.07527
upperback 1.54249 3.58811 0.108176
thorax -0.258557 1.7969 -1.1768
lowerneck -4.54923 -0.498185 -4.21771
upperneck 12.7497 -1.27415 6.98538
head 4.62065 -0.468895 2.78308
rclavicle -5.66536e-014 1.35174e-014
rhumerus -14.6667 -6.70822 -59.953
rradius 25.6159
rwrist 7.74393
rhand -29.7029 -2.0715
rfingers 7.12502
rthumb -3.03049 -32.0297
lclavicle -5.66536e-014 1.35174e-014
lhumerus -32.5114 20.3183 52.3761
lradius 35.2758
lwrist 11.8386
lhand -20.7403 30.9614
lfingers 7.12502
lthumb 5.62511 60.8668
rfemur -7.54743 13.099 22.9544
rtibia 31.9496
rfoot -30.9873 -26.1627
rtoes 16.9237
lfemur -19.6637 6.88072 -15.3594
ltibia 39.0272
lfoot -16.0441 16.6394
ltoes -5.45172
2066
root 0.35598 18.5414 3.04466 -8.01152 -67.3709 7.51871
lowerback 3.38765 2.64796 2.02787
upperback 1.46127 3.57916 0.047109
thorax -0.275662 1.79234 -1.20898
lowerneck -4.41677 -0.572662 -4.29111
upperneck 12.7041 -1.38298 7.08819
head 4.59137 -0.522848 2.82121
rclavicle 1.02473e-013 6.36111e-015
rhumerus -14.0201 -6.75099 -59.5896
rradius 26.5758
rwrist 6.2315
rhand -29.931 -2.37642
rfingers 7.12502
rthumb -3.25083 -32.3314
lclavicle 1.02473e-013 6.36111e-015
lhumerus -32.1176 19.5167 53.4073
lradius 35.2322
lwrist 10.5705
lhand -20.5534 30.5307
lfingers 7.12502
lthumb 5.80554 60.4312
rfemur -7.48673 12.6888 23.0945
rtibia 32.0389
rfoot -30.8417 -26.7412
rtoes 16.3967
lfemur -18.9046 7.263 -15.0789
ltibia 39.7673
lfoot -15.998 16.6895
ltoes -6.21104
